<?xml version="1.0" encoding="UTF-8"?>
<svg width="700" height="700" version="1.1" xmlns="http://www.w3.org/2000/svg">
<circle cx="350" cy="350" r="350" fill="#222"/>
<g transform="translate(113.3 54)" fill="#fff">
	<rect x="25.4" y="499.7" width="423.3" height="21.7"/>
	<rect x="42.1" y="457.9" width="390.7" height="30.1"/>
	<rect x="39.5" y="115.7" width="388.6" height="41.7"/>
	<polygon points="42.1 103.1 425.7 103.1 437.3 90.2 233.9 42.6 30.4 90.2"/>
	<path d="m91 170.2c-0.1-1.7-0.8-2-2.2-2.3-5.7-1.2-11.4-1.8-17.2-1.8-5.7 0-11.5 0.6-17.2 1.8-1.4 0.3-2.1 0.7-2.2 2.3-0.9 19.3-2.2 38.6-2.9 57.9-0.8 20.5-1.3 41-1.7 61.5-0.2 14.5-0.1 29.1 0.1 43.6 0.3 16.1 0.6 32.2 1.3 48.4 0.7 17.3 1.8 34.6 2.7 51.8 0.2 3.3 0.5 6.6 0.8 9.8 6.4 1.7 12.7 2.6 19 2.7 6.3-0.1 12.6-1 19-2.7 0.3-3.2 0.6-6.5 0.8-9.8 0.9-17.3 2-34.6 2.7-51.8 0.7-16.1 1-32.2 1.3-48.4 0.2-14.5 0.4-29.1 0.1-43.6-0.3-20.5-0.9-41-1.7-61.5-0.5-19.3-1.8-38.6-2.7-57.9z"/>
	<path d="m196.8 170.2c-0.1-1.7-0.8-2-2.2-2.3-5.7-1.2-11.4-1.8-17.2-1.8-5.7 0-11.5 0.6-17.2 1.8-1.4 0.3-2.1 0.7-2.2 2.3-0.9 19.3-2.2 38.6-2.9 57.9-0.8 20.5-1.3 41-1.7 61.5-0.2 14.5-0.1 29.1 0.1 43.6 0.3 16.1 0.6 32.2 1.3 48.4 0.7 17.3 1.8 34.6 2.7 51.8 0.2 3.3 0.5 6.6 0.8 9.8 6.4 1.7 12.7 2.6 19 2.7 6.3-0.1 12.6-1 19-2.7 0.3-3.2 0.6-6.5 0.8-9.8 0.9-17.3 2-34.6 2.7-51.8 0.7-16.1 1-32.2 1.3-48.4 0.2-14.5 0.4-29.1 0.1-43.6-0.3-20.5-0.9-41-1.7-61.5-0.5-19.3-1.8-38.6-2.7-57.9z"/>
	<path d="m319.5 170.2c-0.1-1.7-0.8-2-2.2-2.3-5.7-1.2-11.4-1.8-17.2-1.8-5.7 0-11.5 0.6-17.2 1.8-1.4 0.3-2.1 0.7-2.2 2.3-0.9 19.3-2.2 38.6-2.9 57.9-0.8 20.5-1.3 41-1.7 61.5-0.2 14.5-0.1 29.1 0.1 43.6 0.3 16.1 0.6 32.2 1.3 48.4 0.7 17.3 1.8 34.6 2.7 51.8 0.2 3.3 0.5 6.6 0.8 9.8 6.4 1.7 12.7 2.6 19 2.7 6.3-0.1 12.6-1 19-2.7 0.3-3.2 0.6-6.5 0.8-9.8 0.9-17.3 2-34.6 2.7-51.8 0.7-16.1 1-32.2 1.3-48.4 0.2-14.5 0.4-29.1 0.1-43.6-0.3-20.5-0.9-41-1.7-61.5-0.5-19.3-1.7-38.6-2.7-57.9z"/>
	<path d="m422.8 170.2c-0.1-1.7-0.8-2-2.2-2.3-5.7-1.2-11.4-1.8-17.2-1.8-5.7 0-11.5 0.6-17.2 1.8-1.4 0.3-2.1 0.7-2.2 2.3-0.9 19.3-2.2 38.6-2.9 57.9-0.8 20.5-1.3 41-1.7 61.5-0.2 14.5-0.1 29.1 0.1 43.6 0.3 16.1 0.6 32.2 1.3 48.4 0.7 17.3 1.8 34.6 2.7 51.8 0.2 3.3 0.5 6.6 0.8 9.8 6.4 1.7 12.7 2.6 19 2.7 6.3-0.1 12.6-1 19-2.7 0.3-3.2 0.6-6.5 0.8-9.8 0.9-17.3 2-34.6 2.7-51.8 0.7-16.1 1-32.2 1.3-48.4 0.2-14.5 0.4-29.1 0.1-43.6-0.3-20.5-0.9-41-1.7-61.5-0.5-19.3-1.7-38.6-2.7-57.9z"/>
</g>
</svg>
